<mxfile host="app.diagrams.net" modified="2023-06-07T19:12:08.070Z" agent="Mozilla/5.0 (Windows NT 10.0; Win64; x64) AppleWebKit/537.36 (KHTML, like Gecko) Chrome/113.0.0.0 Safari/537.36" etag="7Uz-VBRTV5Ktush0zT8u" version="21.3.7" type="device">
  <diagram name="Page-1" id="M4WDvHF6QqO-p-FS4kOS">
    <mxGraphModel dx="1083" dy="778" grid="1" gridSize="10" guides="1" tooltips="1" connect="1" arrows="1" fold="1" page="1" pageScale="1" pageWidth="850" pageHeight="1100" math="0" shadow="0">
      <root>
        <mxCell id="0" />
        <mxCell id="1" parent="0" />
        <mxCell id="qaaVTXzU8mfkaYrH7KEW-2" style="edgeStyle=orthogonalEdgeStyle;rounded=0;orthogonalLoop=1;jettySize=auto;html=1;exitX=0.5;exitY=1;exitDx=0;exitDy=0;" edge="1" parent="1" source="qaaVTXzU8mfkaYrH7KEW-1">
          <mxGeometry relative="1" as="geometry">
            <mxPoint x="90" y="180" as="targetPoint" />
          </mxGeometry>
        </mxCell>
        <mxCell id="qaaVTXzU8mfkaYrH7KEW-1" value="START" style="ellipse;whiteSpace=wrap;html=1;" vertex="1" parent="1">
          <mxGeometry x="30" y="30" width="120" height="80" as="geometry" />
        </mxCell>
        <mxCell id="qaaVTXzU8mfkaYrH7KEW-4" style="edgeStyle=orthogonalEdgeStyle;rounded=0;orthogonalLoop=1;jettySize=auto;html=1;exitX=0.5;exitY=1;exitDx=0;exitDy=0;" edge="1" parent="1" source="qaaVTXzU8mfkaYrH7KEW-3">
          <mxGeometry relative="1" as="geometry">
            <mxPoint x="90" y="340" as="targetPoint" />
          </mxGeometry>
        </mxCell>
        <mxCell id="qaaVTXzU8mfkaYrH7KEW-3" value="DIsplay Main Menu" style="rounded=0;whiteSpace=wrap;html=1;" vertex="1" parent="1">
          <mxGeometry x="25" y="180" width="130" height="80" as="geometry" />
        </mxCell>
        <mxCell id="qaaVTXzU8mfkaYrH7KEW-8" value="" style="rounded=0;whiteSpace=wrap;html=1;" vertex="1" parent="1">
          <mxGeometry x="25" y="340" width="130" height="70" as="geometry" />
        </mxCell>
      </root>
    </mxGraphModel>
  </diagram>
</mxfile>
